<svg preserveAspectRatio="none" width="100%" height="100%" overflow="visible" style="display: block;" viewBox="0 0 627.547 546" fill="none" xmlns="http://www.w3.org/2000/svg">
<g id="grad map">
<path id="Area-1" opacity="0.2" d="M627 320.86C444.758 320.86 219.627 415.567 149.64 545.932H43C177.486 352.683 260.906 295.932 627 295.932V320.86Z" fill="var(--fill-0, #43A047)"/>
<path id="Area-1_2" opacity="0.2" d="M627 244.932C259.294 244.932 85.9482 344.249 2.31638 545.932H43.1528C177.603 352.807 261.001 296.092 627 296.092V244.932Z" fill="var(--fill-0, #7CB342)"/>
<path id="Area-1_3" opacity="0.2" d="M627 245.262C259.108 245.262 85.6741 344.47 1.99997 545.932V392.311C87.9561 256.678 260.816 204.932 627 204.932V245.262Z" fill="var(--fill-0, #A7DA72)"/>
<path id="Area-1_4" opacity="0.2" d="M627 167.932C259.108 167.932 86.4348 227.605 1.99997 312.182V391.932C87.9561 256.478 260.816 204.801 627 204.801V167.932Z" fill="var(--fill-0, #ACFB2C)"/>
<path id="Area-1_5" opacity="0.2" d="M627 168.009C259.108 168.009 86.4348 227.547 1.99997 311.932L1.99997 269.215C80.3494 171.846 260.816 100.932 627 100.932V168.009Z" fill="var(--fill-0, #FF6565)"/>
<path id="Area-1_6" opacity="0.2" d="M627 48.9322C259.108 48.9322 86.4348 154.845 1.99997 239.532L1.99997 269.932C80.3494 172.215 260.816 101.048 627 101.048V48.9322Z" fill="var(--fill-0, #FF1B1B)"/>
<path id="Area-1_7" opacity="0.2" d="M627 49.014C259.108 49.014 86.4348 154.548 1.99997 238.932L1.99997 223.718C80.3494 126.35 260.816 9.93219 627 9.93219V49.014Z" fill="var(--fill-0, #990400)"/>
<path id="Area-1_8" opacity="0.2" d="M4.65077 220.395L2 207.718C69.2058 124.199 211.547 26.6629 481.784 0.607574V17.3222C230.014 36.6433 67.886 140.166 4.65077 220.395Z" fill="var(--fill-0, #4E0200)"/>
</g>
</svg>
