<svg preserveAspectRatio="none" width="100%" height="100%" overflow="visible" style="display: block;" viewBox="0 0 8.18679 8.18679" fill="none" xmlns="http://www.w3.org/2000/svg">
<path id="sparkles" d="M5.57157 1.20812L6.3675 0.909643L6.66598 0.0994923C6.69441 0.0426395 6.75126 0 6.82233 0C6.89339 0 6.95024 0.0426395 6.97867 0.0994923L7.27715 0.909643L8.0873 1.20812C8.14415 1.23655 8.18679 1.2934 8.18679 1.36447C8.18679 1.43553 8.14415 1.49238 8.0873 1.52081L7.27715 1.81929L6.97867 2.62944C6.95024 2.68629 6.89339 2.72893 6.82233 2.72893C6.75126 2.72893 6.69441 2.68629 6.66598 2.62944L6.3675 1.81929L5.57157 1.52081C5.5005 1.49238 5.45786 1.43553 5.45786 1.36447C5.45786 1.2934 5.5005 1.23655 5.57157 1.20812ZM2.94213 1.49238H2.92791L3.69543 3.1269L5.32994 3.89441C5.40101 3.92284 5.45786 4.00812 5.45786 4.0934C5.45786 4.17867 5.40101 4.26395 5.32994 4.30659L3.69543 5.05989L2.92791 6.69441C2.89949 6.76547 2.81421 6.82233 2.72893 6.82233C2.64365 6.82233 2.55837 6.76547 2.51573 6.69441L1.76243 5.05989L0.127919 4.30659C0.0568527 4.26395 0 4.17867 0 4.0934C0 4.00812 0.0568527 3.92284 0.127919 3.8802L1.76243 3.1269L2.52995 1.49238C2.55837 1.42132 2.64365 1.36447 2.72893 1.36447C2.81421 1.36447 2.89949 1.42132 2.94213 1.49238ZM5.91268 6.3675L6.21116 5.57157C6.23959 5.5005 6.29644 5.45786 6.3675 5.45786C6.43857 5.45786 6.49542 5.5005 6.52385 5.57157L6.82233 6.3675L7.63248 6.66598C7.68933 6.69441 7.73197 6.75126 7.73197 6.82233C7.73197 6.89339 7.68933 6.95024 7.63248 6.97867L6.82233 7.27715L6.52385 8.0873C6.49542 8.14415 6.43857 8.18679 6.3675 8.18679C6.29644 8.18679 6.23959 8.14415 6.21116 8.0873L5.91268 7.27715L5.11674 6.97867C5.04568 6.95024 5.00304 6.89339 5.00304 6.82233C5.00304 6.75126 5.04568 6.69441 5.11674 6.66598L5.91268 6.3675Z" fill="url(#paint0_linear_1677_5213)"/>
<defs>
<linearGradient id="paint0_linear_1677_5213" x1="8.18679" y1="4.0934" x2="0" y2="4.0934" gradientUnits="userSpaceOnUse">
<stop stop-color="#05AAD4"/>
<stop offset="1" stop-color="#00154F"/>
</linearGradient>
</defs>
</svg>
