<svg preserveAspectRatio="none" width="100%" height="100%" overflow="visible" style="display: block;" viewBox="0 0 168.664 81.8685" fill="none" xmlns="http://www.w3.org/2000/svg">
<g id="slices">
<path id="Subtract" d="M149.454 35.6696C152.636 40.3238 155.336 45.3054 157.504 50.5388C161.618 60.4713 163.735 71.1176 163.735 81.8685H132.371C132.371 75.2364 131.065 68.6684 128.527 62.5411C127.305 59.5918 125.806 56.7739 124.061 54.1195L149.454 35.6696Z" fill="var(--fill-0, #E53A36)"/>
<path id="Subtract_2" d="M39.6747 54.1195C37.929 56.7739 36.4305 59.5918 35.2089 62.5411C32.671 68.6681 31.3649 75.2351 31.3648 81.8669H0C0.000100699 71.1164 2.11764 60.4711 6.23162 50.5388C8.39926 45.3057 11.0985 40.3235 14.2796 35.6696L39.6747 54.1195Z" fill="var(--fill-0, #43A047)"/>
<path id="Subtract_3" d="M64.0415 34.6177C63.5387 34.8073 63.0378 35.0029 62.5406 35.2088C56.4133 37.7468 50.8464 41.4678 46.1568 46.1574C44.8386 47.4755 43.5985 48.8641 42.4383 50.3139L17.0463 31.864C19.1815 29.096 21.4953 26.4609 23.9778 23.9784C31.5799 16.3763 40.6057 10.3458 50.5383 6.23155C51.7949 5.71106 53.0628 5.22224 54.341 4.76591L64.0415 34.6177Z" fill="var(--fill-0, #7CB342)"/>
<path id="Subtract_4" d="M81.8685 1.18467e-05C89.6851 8.48342e-05 97.4458 1.1203 104.917 3.31262L95.2185 33.1628C90.8777 31.973 86.3884 31.3649 81.8685 31.3649C77.3479 31.3649 72.857 31.9726 68.5155 33.1628L58.8166 3.31262C66.2889 1.11995 74.0512 1.08216e-05 81.8685 1.18467e-05Z" fill="var(--fill-0, #FBC02C)"/>
<path id="Subtract_5" d="M109.393 4.76591C110.672 5.22238 111.94 5.71088 113.197 6.23155C123.13 10.3458 132.156 16.3763 139.758 23.9784C142.24 26.4609 144.554 29.096 146.689 31.864L121.296 50.3139C120.136 48.8644 118.897 47.4753 117.579 46.1574C112.889 41.4678 107.322 37.7468 101.195 35.2088C100.697 35.0027 100.196 34.8075 99.6925 34.6177L109.393 4.76591Z" fill="var(--fill-0, #FB8C00)"/>
<path id="sparkles" d="M166.049 30.2774L166.844 29.9789L167.143 29.1688C167.171 29.1119 167.228 29.0693 167.299 29.0693C167.37 29.0693 167.427 29.1119 167.456 29.1688L167.754 29.9789L168.564 30.2774C168.621 30.3058 168.664 30.3627 168.664 30.4338C168.664 30.5048 168.621 30.5617 168.564 30.5901L167.754 30.8886L167.456 31.6987C167.427 31.7556 167.37 31.7982 167.299 31.7982C167.228 31.7982 167.171 31.7556 167.143 31.6987L166.844 30.8886L166.049 30.5901C165.977 30.5617 165.935 30.5048 165.935 30.4338C165.935 30.3627 165.977 30.3058 166.049 30.2774ZM163.419 30.5617H163.405L164.172 32.1962L165.807 32.9637C165.878 32.9921 165.935 33.0774 165.935 33.1627C165.935 33.248 165.878 33.3332 165.807 33.3759L164.172 34.1292L163.405 35.7637C163.376 35.8348 163.291 35.8916 163.206 35.8916C163.121 35.8916 163.035 35.8348 162.993 35.7637L162.239 34.1292L160.605 33.3759C160.534 33.3332 160.477 33.248 160.477 33.1627C160.477 33.0774 160.534 32.9921 160.605 32.9495L162.239 32.1962L163.007 30.5617C163.035 30.4906 163.121 30.4338 163.206 30.4338C163.291 30.4338 163.376 30.4906 163.419 30.5617ZM166.39 35.4368L166.688 34.6409C166.717 34.5698 166.773 34.5272 166.844 34.5272C166.916 34.5272 166.972 34.5698 167.001 34.6409L167.299 35.4368L168.109 35.7353C168.166 35.7637 168.209 35.8206 168.209 35.8916C168.209 35.9627 168.166 36.0195 168.109 36.048L167.299 36.3464L167.001 37.1566C166.972 37.2134 166.916 37.2561 166.844 37.2561C166.773 37.2561 166.717 37.2134 166.688 37.1566L166.39 36.3464L165.594 36.048C165.523 36.0195 165.48 35.9627 165.48 35.8916C165.48 35.8206 165.523 35.7637 165.594 35.7353L166.39 35.4368Z" fill="url(#paint0_linear_1677_5135)"/>
</g>
<defs>
<linearGradient id="paint0_linear_1677_5135" x1="168.664" y1="33.1627" x2="160.477" y2="33.1627" gradientUnits="userSpaceOnUse">
<stop stop-color="#05AAD4"/>
<stop offset="1" stop-color="#00154F"/>
</linearGradient>
</defs>
</svg>
