<svg preserveAspectRatio="none" width="100%" height="100%" overflow="visible" style="display: block;" viewBox="0 0 348.844 299.169" fill="none" xmlns="http://www.w3.org/2000/svg">
<g id="grad map" opacity="0.33">
<path id="Area-1" opacity="0.5" d="M348.844 173.545C247.126 173.544 121.469 226.405 82.4055 299.169H22.8842C97.9475 191.307 144.508 159.631 348.844 159.631V173.545Z" fill="var(--fill-0, #43A047)"/>
<path id="Area-1_2" opacity="0.4" d="M348.844 131.165C143.609 131.165 46.8558 186.599 0.176604 299.169H22.9695C98.0132 191.376 144.562 159.72 348.844 159.72V131.165Z" fill="var(--fill-0, #7CB342)"/>
<path id="Area-1_3" opacity="0.4" d="M348.844 131.349C143.505 131.349 46.7028 186.723 0 299.169V213.425C47.9765 137.722 144.458 108.839 348.844 108.839V131.349Z" fill="var(--fill-0, #A7DA72)"/>
<path id="Area-1_4" opacity="0.4" d="M348.844 88.1879C143.505 88.1879 47.1274 121.494 0 168.701V213.214C47.9765 137.61 144.458 108.766 348.844 108.766V88.1879Z" fill="var(--fill-0, #ACFB2C)"/>
<path id="Area-1_5" opacity="0.4" d="M348.844 88.2305C143.505 88.2305 47.1274 121.462 0 168.562V144.719C43.7308 90.3723 144.458 50.7917 348.844 50.7917V88.2305Z" fill="var(--fill-0, #FF6565)"/>
<path id="Area-1_6" opacity="0.5" d="M348.844 21.7679C143.505 21.7679 47.1274 80.8833 0 128.152V145.119C43.7308 90.5785 144.458 50.8564 348.844 50.8564V21.7679Z" fill="var(--fill-0, #FF1B1B)"/>
<path id="Area-1_7" opacity="0.5" d="M348.844 21.8136C143.505 21.8136 47.1274 80.7174 0 127.817V119.325C43.7308 64.9789 144.458 0 348.844 0V21.8136Z" fill="var(--fill-0, #990400)"/>
</g>
</svg>
